ISO-10303-21;
HEADER;
FILE_DESCRIPTION (( 'STEP AP214' ),
    '1' );
FILE_NAME ('2_BLEí¥è¨å^BLE_MODULE.STEP',
    '2020-03-30T06:09:38',
    ( '' ),
    ( '' ),
    'SwSTEP 2.0',
    'SolidWorks 2015',
    '' );
FILE_SCHEMA (( 'AUTOMOTIVE_DESIGN' ));
ENDSEC;

DATA;
#1 = MECHANICAL_DESIGN_GEOMETRIC_PRESENTATION_REPRESENTATION (  '', ( #81 ), #309 ) ;
#2 = PRESENTATION_LAYER_ASSIGNMENT (  '', '', ( #141 ) ) ;
#3 = PRODUCT_DEFINITION_CONTEXT ( 'detailed design', #138, 'design' ) ;
#4 = EDGE_CURVE ( 'NONE', #443, #30, #262, .T. ) ;
#5 = CARTESIAN_POINT ( 'NONE',  ( 8.550000000000002500, 0.3100000000000000000, 0.0000000000000000000 ) ) ;
#6 = LINE ( 'NONE', #347, #60 ) ;
#7 = ADVANCED_FACE ( 'NONE', ( #422 ), #447, .F. ) ;
#8 = PLANE ( 'NONE',  #426 ) ;
#9 =( NAMED_UNIT ( * ) PLANE_ANGLE_UNIT ( ) SI_UNIT ( $, .RADIAN. ) );
#10 = SURFACE_STYLE_FILL_AREA ( #211 ) ;
#11 = VECTOR ( 'NONE', #322, 1000.000000000000000 ) ;
#12 = MECHANICAL_DESIGN_GEOMETRIC_PRESENTATION_REPRESENTATION (  '', ( #190 ), #320 ) ;
#13 = FILL_AREA_STYLE_COLOUR ( '', #259 ) ;
#14 = COLOUR_RGB ( '',0.0000000000000000000, 1.000000000000000000, 0.0000000000000000000 ) ;
#15 = PRESENTATION_STYLE_ASSIGNMENT (( #420 ) ) ;
#16 = DIRECTION ( 'NONE',  ( 0.0000000000000000000, 0.0000000000000000000, 1.000000000000000000 ) ) ;
#17 = MECHANICAL_DESIGN_GEOMETRIC_PRESENTATION_REPRESENTATION (  '', ( #215 ), #196 ) ;
#18 = EDGE_LOOP ( 'NONE', ( #92, #108, #417, #71 ) ) ;
#19 = FILL_AREA_STYLE_COLOUR ( '', #14 ) ;
#20 = CARTESIAN_POINT ( 'NONE',  ( 0.0000000000000000000, 0.3100000000000000000, -3.249999999999997800 ) ) ;
#21 = EDGE_LOOP ( 'NONE', ( #272, #126, #213, #292 ) ) ;
#22 = COLOUR_RGB ( '',0.0000000000000000000, 1.000000000000000000, 0.0000000000000000000 ) ;
#23 = SURFACE_STYLE_USAGE ( .BOTH. , #28 ) ;
#24 = EDGE_LOOP ( 'NONE', ( #188, #241, #102, #412 ) ) ;
#25 = CARTESIAN_POINT ( 'NONE',  ( 8.550000000000002500, 0.0000000000000000000, -3.249999999999998700 ) ) ;
#26 = EDGE_CURVE ( 'NONE', #303, #443, #387, .T. ) ;
#27 = DIRECTION ( 'NONE',  ( 0.0000000000000000000, 1.000000000000000000, -0.0000000000000000000 ) ) ;
#28 = SURFACE_SIDE_STYLE ('',( #148 ) ) ;
#29 = PLANE ( 'NONE',  #385 ) ;
#30 = VERTEX_POINT ( 'NONE', #155 ) ;
#31 = DIRECTION ( 'NONE',  ( -0.0000000000000000000, -1.000000000000000000, -0.0000000000000000000 ) ) ;
#32 = PRESENTATION_LAYER_ASSIGNMENT (  '', '', ( #215 ) ) ;
#33 = DIRECTION ( 'NONE',  ( 0.0000000000000000000, 0.0000000000000000000, 1.000000000000000000 ) ) ;
#34 = FILL_AREA_STYLE ('',( #179 ) ) ;
#35 = DIRECTION ( 'NONE',  ( 2.526296324238069700E-016, -0.0000000000000000000, 1.000000000000000000 ) ) ;
#36 = VERTEX_POINT ( 'NONE', #446 ) ;
#37 = ORIENTED_EDGE ( 'NONE', *, *, #233, .F. ) ;
#38 = VECTOR ( 'NONE', #452, 1000.000000000000000 ) ;
#39 = VECTOR ( 'NONE', #339, 1000.000000000000000 ) ;
#40 = EDGE_CURVE ( 'NONE', #58, #442, #228, .T. ) ;
#41 = DIRECTION ( 'NONE',  ( 0.0000000000000000000, -0.0000000000000000000, 1.000000000000000000 ) ) ;
#42 =( GEOMETRIC_REPRESENTATION_CONTEXT ( 3 ) GLOBAL_UNCERTAINTY_ASSIGNED_CONTEXT ( ( #112 ) ) GLOBAL_UNIT_ASSIGNED_CONTEXT ( ( #172, #99, #128 ) ) REPRESENTATION_CONTEXT ( 'NONE', 'WORKASPACE' ) );
#43 = DIRECTION ( 'NONE',  ( 0.0000000000000000000, 0.0000000000000000000, 1.000000000000000000 ) ) ;
#44 = LINE ( 'NONE', #73, #116 ) ;
#45 = DIRECTION ( 'NONE',  ( 1.000000000000000000, 0.0000000000000000000, 0.0000000000000000000 ) ) ;
#46 = CARTESIAN_POINT ( 'NONE',  ( 5.149999999999998600, 0.3100000000000000000, -3.249999999999999100 ) ) ;
#47 = CARTESIAN_POINT ( 'NONE',  ( 0.0000000000000000000, 1.000000000000000000, 0.0000000000000000000 ) ) ;
#48 = VERTEX_POINT ( 'NONE', #407 ) ;
#49 = EDGE_CURVE ( 'NONE', #58, #271, #168, .T. ) ;
#50 = PRODUCT_CONTEXT ( 'NONE', #267, 'mechanical' ) ;
#51 = LINE ( 'NONE', #195, #63 ) ;
#52 = STYLED_ITEM ( 'NONE', ( #391 ), #392 ) ;
#53 = FACE_OUTER_BOUND ( 'NONE', #283, .T. ) ;
#54 =( NAMED_UNIT ( * ) PLANE_ANGLE_UNIT ( ) SI_UNIT ( $, .RADIAN. ) );
#55 = UNCERTAINTY_MEASURE_WITH_UNIT (LENGTH_MEASURE( 1.000000000000000100E-005 ), #388, 'distance_accuracy_value', 'NONE');
#56 = FACE_OUTER_BOUND ( 'NONE', #293, .T. ) ;
#57 = CARTESIAN_POINT ( 'NONE',  ( 5.150000000000000400, 1.000000000000000000, -3.153465507804436300E-016 ) ) ;
#58 = VERTEX_POINT ( 'NONE', #222 ) ;
#59 = ADVANCED_FACE ( 'NONE', ( #203 ), #242, .T. ) ;
#60 = VECTOR ( 'NONE', #239, 1000.000000000000000 ) ;
#61 = VERTEX_POINT ( 'NONE', #343 ) ;
#62 = STYLED_ITEM ( 'NONE', ( #125 ), #144 ) ;
#63 = VECTOR ( 'NONE', #105, 1000.000000000000000 ) ;
#64 = ADVANCED_FACE ( 'NONE', ( #96 ), #436, .F. ) ;
#65 = ORIENTED_EDGE ( 'NONE', *, *, #139, .T. ) ;
#66 = CARTESIAN_POINT ( 'NONE',  ( 8.550000000000002500, 0.3100000000000000000, 0.0000000000000000000 ) ) ;
#67 = EDGE_LOOP ( 'NONE', ( #70, #457, #382, #173 ) ) ;
#68 = CARTESIAN_POINT ( 'NONE',  ( 0.0000000000000000000, 0.3100000000000000000, -3.249999999999997800 ) ) ;
#69 = MECHANICAL_DESIGN_GEOMETRIC_PRESENTATION_REPRESENTATION (  '', ( #218 ), #403 ) ;
#70 = ORIENTED_EDGE ( 'NONE', *, *, #404, .F. ) ;
#71 = ORIENTED_EDGE ( 'NONE', *, *, #333, .T. ) ;
#72 = VECTOR ( 'NONE', #282, 1000.000000000000000 ) ;
#73 = CARTESIAN_POINT ( 'NONE',  ( 5.149999999999998600, 1.000000000000000000, -3.249999999999999100 ) ) ;
#74 = EDGE_CURVE ( 'NONE', #61, #58, #287, .T. ) ;
#75 = DIRECTION ( 'NONE',  ( 0.0000000000000000000, 1.000000000000000000, 0.0000000000000000000 ) ) ;
#76 =( GEOMETRIC_REPRESENTATION_CONTEXT ( 3 ) GLOBAL_UNCERTAINTY_ASSIGNED_CONTEXT ( ( #169 ) ) GLOBAL_UNIT_ASSIGNED_CONTEXT ( ( #360, #406, #194 ) ) REPRESENTATION_CONTEXT ( 'NONE', 'WORKASPACE' ) );
#77 = VECTOR ( 'NONE', #43, 1000.000000000000000 ) ;
#78 = EDGE_CURVE ( 'NONE', #101, #226, #296, .T. ) ;
#79 = ORIENTED_EDGE ( 'NONE', *, *, #336, .F. ) ;
#80 = VECTOR ( 'NONE', #398, 1000.000000000000000 ) ;
#81 = STYLED_ITEM ( 'NONE', ( #15 ), #160 ) ;
#82 = LINE ( 'NONE', #152, #107 ) ;
#83 = COLOUR_RGB ( '',0.0000000000000000000, 1.000000000000000000, 0.0000000000000000000 ) ;
#84 = SURFACE_STYLE_FILL_AREA ( #199 ) ;
#85 = LINE ( 'NONE', #304, #223 ) ;
#86 = DIRECTION ( 'NONE',  ( 1.000000000000000000, 0.0000000000000000000, 0.0000000000000000000 ) ) ;
#87 = UNCERTAINTY_MEASURE_WITH_UNIT (LENGTH_MEASURE( 1.000000000000000100E-005 ), #156, 'distance_accuracy_value', 'NONE');
#88 = CARTESIAN_POINT ( 'NONE',  ( 0.0000000000000000000, 0.0000000000000000000, 0.0000000000000000000 ) ) ;
#89 =( LENGTH_UNIT ( ) NAMED_UNIT ( * ) SI_UNIT ( .MILLI., .METRE. ) );
#90 = EDGE_LOOP ( 'NONE', ( #167, #430, #454, #238 ) ) ;
#91 = DIRECTION ( 'NONE',  ( 1.000000000000000000, 0.0000000000000000000, -6.123233995736771000E-017 ) ) ;
#92 = ORIENTED_EDGE ( 'NONE', *, *, #111, .T. ) ;
#93 = EDGE_CURVE ( 'NONE', #48, #443, #51, .T. ) ;
#94 = CARTESIAN_POINT ( 'NONE',  ( 8.550000000000002500, 0.0000000000000000000, 0.0000000000000000000 ) ) ;
#95 = CARTESIAN_POINT ( 'NONE',  ( 0.0000000000000000000, 1.000000000000000000, -3.249999999999997800 ) ) ;
#96 = FACE_OUTER_BOUND ( 'NONE', #118, .T. ) ;
#97 = DIRECTION ( 'NONE',  ( 5.337610695313256300E-016, 0.0000000000000000000, 1.000000000000000000 ) ) ;
#98 = EDGE_CURVE ( 'NONE', #285, #48, #402, .T. ) ;
#99 =( NAMED_UNIT ( * ) PLANE_ANGLE_UNIT ( ) SI_UNIT ( $, .RADIAN. ) );
#100 = PRESENTATION_LAYER_ASSIGNMENT (  '', '', ( #202 ) ) ;
#101 = VERTEX_POINT ( 'NONE', #338 ) ;
#102 = ORIENTED_EDGE ( 'NONE', *, *, #98, .F. ) ;
#103 = PLANE ( 'NONE',  #346 ) ;
#104 = PRESENTATION_STYLE_ASSIGNMENT (( #177 ) ) ;
#105 = DIRECTION ( 'NONE',  ( -0.0000000000000000000, -1.000000000000000000, -0.0000000000000000000 ) ) ;
#106 = EDGE_CURVE ( 'NONE', #36, #285, #82, .T. ) ;
#107 = VECTOR ( 'NONE', #348, 1000.000000000000000 ) ;
#108 = ORIENTED_EDGE ( 'NONE', *, *, #139, .F. ) ;
#109 = SURFACE_SIDE_STYLE ('',( #411 ) ) ;
#110 = SHAPE_DEFINITION_REPRESENTATION ( #410, #434 ) ;
#111 = EDGE_CURVE ( 'NONE', #30, #224, #424, .T. ) ;
#112 = UNCERTAINTY_MEASURE_WITH_UNIT (LENGTH_MEASURE( 1.000000000000000100E-005 ), #172, 'distance_accuracy_value', 'NONE');
#113 = MECHANICAL_DESIGN_GEOMETRIC_PRESENTATION_REPRESENTATION (  '', ( #202 ), #121 ) ;
#114 = DIRECTION ( 'NONE',  ( 0.0000000000000000000, 0.0000000000000000000, 1.000000000000000000 ) ) ;
#115 = CARTESIAN_POINT ( 'NONE',  ( 8.550000000000002500, 0.0000000000000000000, -3.249999999999998700 ) ) ;
#116 = VECTOR ( 'NONE', #31, 1000.000000000000000 ) ;
#117 =( LENGTH_UNIT ( ) NAMED_UNIT ( * ) SI_UNIT ( .MILLI., .METRE. ) );
#118 = EDGE_LOOP ( 'NONE', ( #314, #335, #143, #405 ) ) ;
#119 = LINE ( 'NONE', #278, #11 ) ;
#120 = SURFACE_STYLE_USAGE ( .BOTH. , #361 ) ;
#121 =( GEOMETRIC_REPRESENTATION_CONTEXT ( 3 ) GLOBAL_UNCERTAINTY_ASSIGNED_CONTEXT ( ( #55 ) ) GLOBAL_UNIT_ASSIGNED_CONTEXT ( ( #388, #440, #383 ) ) REPRESENTATION_CONTEXT ( 'NONE', 'WORKASPACE' ) );
#122 = EDGE_CURVE ( 'NONE', #61, #431, #119, .T. ) ;
#123 = DIRECTION ( 'NONE',  ( 0.0000000000000000000, 0.0000000000000000000, -1.000000000000000000 ) ) ;
#124 = CARTESIAN_POINT ( 'NONE',  ( 0.0000000000000000000, 0.3100000000000000000, 0.0000000000000000000 ) ) ;
#125 = PRESENTATION_STYLE_ASSIGNMENT (( #134 ) ) ;
#126 = ORIENTED_EDGE ( 'NONE', *, *, #106, .T. ) ;
#127 = CARTESIAN_POINT ( 'NONE',  ( 8.550000000000002500, 0.3100000000000000000, -3.249999999999998700 ) ) ;
#128 =( NAMED_UNIT ( * ) SI_UNIT ( $, .STERADIAN. ) SOLID_ANGLE_UNIT ( ) );
#129 = AXIS2_PLACEMENT_3D ( 'NONE', #247, #433, #418 ) ;
#130 = CARTESIAN_POINT ( 'NONE',  ( 0.0000000000000000000, 0.3100000000000000000, -3.249999999999997800 ) ) ;
#131 = LINE ( 'NONE', #20, #334 ) ;
#132 = ORIENTED_EDGE ( 'NONE', *, *, #220, .F. ) ;
#133 = ORIENTED_EDGE ( 'NONE', *, *, #74, .F. ) ;
#134 = SURFACE_STYLE_USAGE ( .BOTH. , #451 ) ;
#135 = MANIFOLD_SOLID_BREP ( 'ŒﬁΩ - âüÇµèoÇµ2', #362 ) ;
#136 = DIRECTION ( 'NONE',  ( -0.0000000000000000000, -1.000000000000000000, -0.0000000000000000000 ) ) ;
#137 = PRODUCT_DEFINITION ( 'UNKNOWN', '', #207, #3 ) ;
#138 = APPLICATION_CONTEXT ( 'automotive_design' ) ;
#139 = EDGE_CURVE ( 'NONE', #36, #224, #44, .T. ) ;
#140 = VECTOR ( 'NONE', #421, 1000.000000000000000 ) ;
#141 = STYLED_ITEM ( 'NONE', ( #104 ), #183 ) ;
#142 = SURFACE_STYLE_FILL_AREA ( #384 ) ;
#143 = ORIENTED_EDGE ( 'NONE', *, *, #26, .F. ) ;
#144 = MANIFOLD_SOLID_BREP ( 'ŒﬁΩ - âüÇµèoÇµ1', #396 ) ;
#145 = AXIS2_PLACEMENT_3D ( 'NONE', #47, #150, #329 ) ;
#146 =( NAMED_UNIT ( * ) SI_UNIT ( $, .STERADIAN. ) SOLID_ANGLE_UNIT ( ) );
#147 = UNCERTAINTY_MEASURE_WITH_UNIT (LENGTH_MEASURE( 1.000000000000000100E-005 ), #117, 'distance_accuracy_value', 'NONE');
#148 = SURFACE_STYLE_FILL_AREA ( #331 ) ;
#149 = FILL_AREA_STYLE ('',( #13 ) ) ;
#150 = DIRECTION ( 'NONE',  ( -6.123233995736771000E-017, 0.0000000000000000000, -1.000000000000000000 ) ) ;
#151 = EDGE_CURVE ( 'NONE', #271, #319, #232, .T. ) ;
#152 = CARTESIAN_POINT ( 'NONE',  ( 5.149999999999998600, 1.000000000000000000, -3.249999999999999100 ) ) ;
#153 = VECTOR ( 'NONE', #345, 1000.000000000000000 ) ;
#154 = SURFACE_STYLE_USAGE ( .BOTH. , #165 ) ;
#155 = CARTESIAN_POINT ( 'NONE',  ( 5.150000000000000400, 0.3100000000000000000, -3.153465507804436300E-016 ) ) ;
#156 =( LENGTH_UNIT ( ) NAMED_UNIT ( * ) SI_UNIT ( .MILLI., .METRE. ) );
#157 = PRESENTATION_STYLE_ASSIGNMENT (( #315 ) ) ;
#158 =( NAMED_UNIT ( * ) SI_UNIT ( $, .STERADIAN. ) SOLID_ANGLE_UNIT ( ) );
#159 = PLANE ( 'NONE',  #145 ) ;
#160 = ADVANCED_FACE ( 'NONE', ( #327 ), #368, .F. ) ;
#161 = CARTESIAN_POINT ( 'NONE',  ( 8.550000000000002500, 0.3100000000000000000, -3.249999999999998700 ) ) ;
#162 = VECTOR ( 'NONE', #268, 1000.000000000000000 ) ;
#163 = CARTESIAN_POINT ( 'NONE',  ( 8.550000000000002500, 0.3100000000000000000, -3.249999999999998700 ) ) ;
#164 = PRODUCT ( '2_BLEí¥è¨å^BLE_MODULE', '2_BLEí¥è¨å^BLE_MODULE', '', ( #50 ) ) ;
#165 = SURFACE_SIDE_STYLE ('',( #10 ) ) ;
#166 = ORIENTED_EDGE ( 'NONE', *, *, #220, .T. ) ;
#167 = ORIENTED_EDGE ( 'NONE', *, *, #4, .T. ) ;
#168 = LINE ( 'NONE', #340, #72 ) ;
#169 = UNCERTAINTY_MEASURE_WITH_UNIT (LENGTH_MEASURE( 1.000000000000000100E-005 ), #360, 'distance_accuracy_value', 'NONE');
#170 = LINE ( 'NONE', #441, #214 ) ;
#171 = ORIENTED_EDGE ( 'NONE', *, *, #336, .T. ) ;
#172 =( LENGTH_UNIT ( ) NAMED_UNIT ( * ) SI_UNIT ( .MILLI., .METRE. ) );
#173 = ORIENTED_EDGE ( 'NONE', *, *, #204, .F. ) ;
#174 = AXIS2_PLACEMENT_3D ( 'NONE', #127, #377, #444 ) ;
#175 = DIRECTION ( 'NONE',  ( -5.337610695313255300E-016, 0.0000000000000000000, -1.000000000000000000 ) ) ;
#176 = VECTOR ( 'NONE', #438, 1000.000000000000000 ) ;
#177 = SURFACE_STYLE_USAGE ( .BOTH. , #351 ) ;
#178 = CARTESIAN_POINT ( 'NONE',  ( 8.550000000000002500, 0.0000000000000000000, 0.0000000000000000000 ) ) ;
#179 = FILL_AREA_STYLE_COLOUR ( '', #251 ) ;
#180 = ORIENTED_EDGE ( 'NONE', *, *, #78, .T. ) ;
#181 = APPLICATION_PROTOCOL_DEFINITION ( 'draft international standard', 'automotive_design', 1998, #267 ) ;
#182 = DIRECTION ( 'NONE',  ( 0.0000000000000000000, 0.0000000000000000000, 1.000000000000000000 ) ) ;
#183 = ADVANCED_FACE ( 'NONE', ( #455 ), #103, .F. ) ;
#184 = CARTESIAN_POINT ( 'NONE',  ( 5.150000000000000400, 1.000000000000000000, -3.153465507804436300E-016 ) ) ;
#185 = FILL_AREA_STYLE_COLOUR ( '', #83 ) ;
#186 = CARTESIAN_POINT ( 'NONE',  ( 0.0000000000000000000, 0.3100000000000000000, 0.0000000000000000000 ) ) ;
#187 = PRODUCT_RELATED_PRODUCT_CATEGORY ( 'part', '', ( #164 ) ) ;
#188 = ORIENTED_EDGE ( 'NONE', *, *, #26, .T. ) ;
#189 = CARTESIAN_POINT ( 'NONE',  ( 0.0000000000000000000, 0.0000000000000000000, -3.249999999999997800 ) ) ;
#190 = STYLED_ITEM ( 'NONE', ( #450 ), #135 ) ;
#191 = ADVANCED_FACE ( 'NONE', ( #290 ), #370, .F. ) ;
#192 = FACE_OUTER_BOUND ( 'NONE', #90, .T. ) ;
#193 = SURFACE_STYLE_FILL_AREA ( #365 ) ;
#194 =( NAMED_UNIT ( * ) SI_UNIT ( $, .STERADIAN. ) SOLID_ANGLE_UNIT ( ) );
#195 = CARTESIAN_POINT ( 'NONE',  ( 0.0000000000000000000, 1.000000000000000000, 0.0000000000000000000 ) ) ;
#196 =( GEOMETRIC_REPRESENTATION_CONTEXT ( 3 ) GLOBAL_UNCERTAINTY_ASSIGNED_CONTEXT ( ( #147 ) ) GLOBAL_UNIT_ASSIGNED_CONTEXT ( ( #117, #216, #212 ) ) REPRESENTATION_CONTEXT ( 'NONE', 'WORKASPACE' ) );
#197 =( GEOMETRIC_REPRESENTATION_CONTEXT ( 3 ) GLOBAL_UNCERTAINTY_ASSIGNED_CONTEXT ( ( #354 ) ) GLOBAL_UNIT_ASSIGNED_CONTEXT ( ( #439, #9, #270 ) ) REPRESENTATION_CONTEXT ( 'NONE', 'WORKASPACE' ) );
#198 = ORIENTED_EDGE ( 'NONE', *, *, #308, .T. ) ;
#199 = FILL_AREA_STYLE ('',( #400 ) ) ;
#200 = MECHANICAL_DESIGN_GEOMETRIC_PRESENTATION_REPRESENTATION (  '', ( #210 ), #371 ) ;
#201 = VECTOR ( 'NONE', #409, 1000.000000000000000 ) ;
#202 = STYLED_ITEM ( 'NONE', ( #316 ), #59 ) ;
#203 = FACE_OUTER_BOUND ( 'NONE', #289, .T. ) ;
#204 = EDGE_CURVE ( 'NONE', #226, #431, #419, .T. ) ;
#205 = ADVANCED_FACE ( 'NONE', ( #192 ), #159, .F. ) ;
#206 = PRESENTATION_LAYER_ASSIGNMENT (  '', '', ( #62 ) ) ;
#207 = PRODUCT_DEFINITION_FORMATION_WITH_SPECIFIED_SOURCE ( 'ANY', '', #164, .NOT_KNOWN. ) ;
#208 = ADVANCED_FACE ( 'NONE', ( #53 ), #8, .F. ) ;
#209 = EDGE_LOOP ( 'NONE', ( #342, #374, #132, #279 ) ) ;
#210 = STYLED_ITEM ( 'NONE', ( #302 ), #240 ) ;
#211 = FILL_AREA_STYLE ('',( #250 ) ) ;
#212 =( NAMED_UNIT ( * ) SI_UNIT ( $, .STERADIAN. ) SOLID_ANGLE_UNIT ( ) );
#213 = ORIENTED_EDGE ( 'NONE', *, *, #98, .T. ) ;
#214 = VECTOR ( 'NONE', #341, 1000.000000000000000 ) ;
#215 = STYLED_ITEM ( 'NONE', ( #157 ), #7 ) ;
#216 =( NAMED_UNIT ( * ) PLANE_ANGLE_UNIT ( ) SI_UNIT ( $, .RADIAN. ) );
#217 =( LENGTH_UNIT ( ) NAMED_UNIT ( * ) SI_UNIT ( .MILLI., .METRE. ) );
#218 = STYLED_ITEM ( 'NONE', ( #432 ), #434 ) ;
#219 = ORIENTED_EDGE ( 'NONE', *, *, #122, .F. ) ;
#220 = EDGE_CURVE ( 'NONE', #442, #101, #414, .T. ) ;
#221 = CARTESIAN_POINT ( 'NONE',  ( 0.0000000000000000000, 0.3100000000000000000, 0.0000000000000000000 ) ) ;
#222 = CARTESIAN_POINT ( 'NONE',  ( 8.550000000000002500, 0.3100000000000000000, 0.0000000000000000000 ) ) ;
#223 = VECTOR ( 'NONE', #136, 1000.000000000000000 ) ;
#224 = VERTEX_POINT ( 'NONE', #46 ) ;
#225 = LINE ( 'NONE', #115, #201 ) ;
#226 = VERTEX_POINT ( 'NONE', #189 ) ;
#227 = PLANE ( 'NONE',  #364 ) ;
#228 = LINE ( 'NONE', #66, #298 ) ;
#229 = SURFACE_STYLE_USAGE ( .BOTH. , #109 ) ;
#230 = PRESENTATION_LAYER_ASSIGNMENT (  '', '', ( #218 ) ) ;
#231 = DIRECTION ( 'NONE',  ( 0.0000000000000000000, 1.000000000000000000, -0.0000000000000000000 ) ) ;
#232 = LINE ( 'NONE', #94, #39 ) ;
#233 = EDGE_CURVE ( 'NONE', #442, #319, #307, .T. ) ;
#234 = VECTOR ( 'NONE', #344, 1000.000000000000000 ) ;
#235 = SURFACE_STYLE_FILL_AREA ( #149 ) ;
#236 = UNCERTAINTY_MEASURE_WITH_UNIT (LENGTH_MEASURE( 1.000000000000000100E-005 ), #217, 'distance_accuracy_value', 'NONE');
#237 = FACE_OUTER_BOUND ( 'NONE', #18, .T. ) ;
#238 = ORIENTED_EDGE ( 'NONE', *, *, #93, .T. ) ;
#239 = DIRECTION ( 'NONE',  ( -1.000000000000000000, 0.0000000000000000000, 2.526296324238069700E-016 ) ) ;
#240 = ADVANCED_FACE ( 'NONE', ( #325 ), #318, .F. ) ;
#241 = ORIENTED_EDGE ( 'NONE', *, *, #93, .F. ) ;
#242 = PLANE ( 'NONE',  #260 ) ;
#243 = APPLICATION_PROTOCOL_DEFINITION ( 'draft international standard', 'automotive_design', 1998, #138 ) ;
#244 = FILL_AREA_STYLE ('',( #19 ) ) ;
#245 =( NAMED_UNIT ( * ) PLANE_ANGLE_UNIT ( ) SI_UNIT ( $, .RADIAN. ) );
#246 = ORIENTED_EDGE ( 'NONE', *, *, #378, .T. ) ;
#247 = CARTESIAN_POINT ( 'NONE',  ( 0.0000000000000000000, 0.0000000000000000000, 0.0000000000000000000 ) ) ;
#248 = ORIENTED_EDGE ( 'NONE', *, *, #49, .T. ) ;
#249 = CARTESIAN_POINT ( 'NONE',  ( 5.149999999999998600, 1.000000000000000000, -3.249999999999999100 ) ) ;
#250 = FILL_AREA_STYLE_COLOUR ( '', #425 ) ;
#251 = COLOUR_RGB ( '',0.7921568627450980000, 0.8196078431372548800, 0.9333333333333333500 ) ;
#252 = UNCERTAINTY_MEASURE_WITH_UNIT (LENGTH_MEASURE( 1.000000000000000100E-005 ), #386, 'distance_accuracy_value', 'NONE');
#253 = CARTESIAN_POINT ( 'NONE',  ( 0.0000000000000000000, 0.3100000000000000000, 0.0000000000000000000 ) ) ;
#254 = PLANE ( 'NONE',  #284 ) ;
#255 = PRESENTATION_LAYER_ASSIGNMENT (  '', '', ( #190 ) ) ;
#256 = DIRECTION ( 'NONE',  ( 0.0000000000000000000, -0.0000000000000000000, 1.000000000000000000 ) ) ;
#257 = EDGE_LOOP ( 'NONE', ( #390, #219, #79, #180 ) ) ;
#258 = DIRECTION ( 'NONE',  ( -1.000000000000000000, 0.0000000000000000000, 0.0000000000000000000 ) ) ;
#259 = COLOUR_RGB ( '',0.0000000000000000000, 1.000000000000000000, 0.0000000000000000000 ) ;
#260 = AXIS2_PLACEMENT_3D ( 'NONE', #186, #27, #16 ) ;
#261 = ADVANCED_FACE ( 'NONE', ( #305 ), #227, .T. ) ;
#262 = LINE ( 'NONE', #253, #330 ) ;
#263 = AXIS2_PLACEMENT_3D ( 'NONE', #372, #86, #356 ) ;
#264 = CARTESIAN_POINT ( 'NONE',  ( 0.0000000000000000000, 0.0000000000000000000, -3.249999999999997800 ) ) ;
#265 = SURFACE_SIDE_STYLE ('',( #193 ) ) ;
#266 = ORIENTED_EDGE ( 'NONE', *, *, #151, .T. ) ;
#267 = APPLICATION_CONTEXT ( 'automotive_design' ) ;
#268 = DIRECTION ( 'NONE',  ( 0.0000000000000000000, 0.0000000000000000000, 1.000000000000000000 ) ) ;
#269 =( NAMED_UNIT ( * ) SI_UNIT ( $, .STERADIAN. ) SOLID_ANGLE_UNIT ( ) );
#270 =( NAMED_UNIT ( * ) SI_UNIT ( $, .STERADIAN. ) SOLID_ANGLE_UNIT ( ) );
#271 = VERTEX_POINT ( 'NONE', #178 ) ;
#272 = ORIENTED_EDGE ( 'NONE', *, *, #380, .T. ) ;
#273 =( GEOMETRIC_REPRESENTATION_CONTEXT ( 3 ) GLOBAL_UNCERTAINTY_ASSIGNED_CONTEXT ( ( #236 ) ) GLOBAL_UNIT_ASSIGNED_CONTEXT ( ( #217, #300, #158 ) ) REPRESENTATION_CONTEXT ( 'NONE', 'WORKASPACE' ) );
#274 = LINE ( 'NONE', #57, #453 ) ;
#275 = MECHANICAL_DESIGN_GEOMETRIC_PRESENTATION_REPRESENTATION (  '', ( #62 ), #42 ) ;
#276 = CARTESIAN_POINT ( 'NONE',  ( 0.0000000000000000000, 0.3100000000000000000, 0.0000000000000000000 ) ) ;
#277 = DIRECTION ( 'NONE',  ( 0.0000000000000000000, 0.0000000000000000000, -1.000000000000000000 ) ) ;
#278 = CARTESIAN_POINT ( 'NONE',  ( 0.0000000000000000000, 0.3100000000000000000, 0.0000000000000000000 ) ) ;
#279 = ORIENTED_EDGE ( 'NONE', *, *, #233, .T. ) ;
#280 =( NAMED_UNIT ( * ) SI_UNIT ( $, .STERADIAN. ) SOLID_ANGLE_UNIT ( ) );
#281 = VECTOR ( 'NONE', #437, 1000.000000000000000 ) ;
#282 = DIRECTION ( 'NONE',  ( -0.0000000000000000000, -1.000000000000000000, -0.0000000000000000000 ) ) ;
#283 = EDGE_LOOP ( 'NONE', ( #246, #456, #294, #65 ) ) ;
#284 = AXIS2_PLACEMENT_3D ( 'NONE', #301, #317, #97 ) ;
#285 = VERTEX_POINT ( 'NONE', #401 ) ;
#286 = MECHANICAL_DESIGN_GEOMETRIC_PRESENTATION_REPRESENTATION (  '', ( #141 ), #273 ) ;
#287 = LINE ( 'NONE', #221, #176 ) ;
#288 =( NAMED_UNIT ( * ) PLANE_ANGLE_UNIT ( ) SI_UNIT ( $, .RADIAN. ) );
#289 = EDGE_LOOP ( 'NONE', ( #166, #171, #313, #332 ) ) ;
#290 = FACE_OUTER_BOUND ( 'NONE', #24, .T. ) ;
#291 = EDGE_LOOP ( 'NONE', ( #198, #359, #133, #311 ) ) ;
#292 = ORIENTED_EDGE ( 'NONE', *, *, #367, .T. ) ;
#293 = EDGE_LOOP ( 'NONE', ( #266, #37, #395, #248 ) ) ;
#294 = ORIENTED_EDGE ( 'NONE', *, *, #106, .F. ) ;
#295 = EDGE_CURVE ( 'NONE', #285, #303, #85, .T. ) ;
#296 = LINE ( 'NONE', #324, #153 ) ;
#297 = UNCERTAINTY_MEASURE_WITH_UNIT (LENGTH_MEASURE( 1.000000000000000100E-005 ), #393, 'distance_accuracy_value', 'NONE');
#298 = VECTOR ( 'NONE', #123, 1000.000000000000000 ) ;
#299 = UNCERTAINTY_MEASURE_WITH_UNIT (LENGTH_MEASURE( 1.000000000000000100E-005 ), #89, 'distance_accuracy_value', 'NONE');
#300 =( NAMED_UNIT ( * ) PLANE_ANGLE_UNIT ( ) SI_UNIT ( $, .RADIAN. ) );
#301 = CARTESIAN_POINT ( 'NONE',  ( 5.150000000000000400, 1.000000000000000000, -3.153465507804436300E-016 ) ) ;
#302 = PRESENTATION_STYLE_ASSIGNMENT (( #120 ) ) ;
#303 = VERTEX_POINT ( 'NONE', #130 ) ;
#304 = CARTESIAN_POINT ( 'NONE',  ( 0.0000000000000000000, 1.000000000000000000, -3.249999999999997800 ) ) ;
#305 = FACE_OUTER_BOUND ( 'NONE', #21, .T. ) ;
#306 =( NAMED_UNIT ( * ) SI_UNIT ( $, .STERADIAN. ) SOLID_ANGLE_UNIT ( ) );
#307 = LINE ( 'NONE', #415, #38 ) ;
#308 = EDGE_CURVE ( 'NONE', #431, #271, #170, .T. ) ;
#309 =( GEOMETRIC_REPRESENTATION_CONTEXT ( 3 ) GLOBAL_UNCERTAINTY_ASSIGNED_CONTEXT ( ( #299 ) ) GLOBAL_UNIT_ASSIGNED_CONTEXT ( ( #89, #54, #280 ) ) REPRESENTATION_CONTEXT ( 'NONE', 'WORKASPACE' ) );
#310 = VERTEX_POINT ( 'NONE', #184 ) ;
#311 = ORIENTED_EDGE ( 'NONE', *, *, #122, .T. ) ;
#312 =( NAMED_UNIT ( * ) PLANE_ANGLE_UNIT ( ) SI_UNIT ( $, .RADIAN. ) );
#313 = ORIENTED_EDGE ( 'NONE', *, *, #74, .T. ) ;
#314 = ORIENTED_EDGE ( 'NONE', *, *, #111, .F. ) ;
#315 = SURFACE_STYLE_USAGE ( .BOTH. , #337 ) ;
#316 = PRESENTATION_STYLE_ASSIGNMENT (( #399 ) ) ;
#317 = DIRECTION ( 'NONE',  ( -1.000000000000000000, 0.0000000000000000000, 5.337610695313256300E-016 ) ) ;
#318 = PLANE ( 'NONE',  #174 ) ;
#319 = VERTEX_POINT ( 'NONE', #25 ) ;
#320 =( GEOMETRIC_REPRESENTATION_CONTEXT ( 3 ) GLOBAL_UNCERTAINTY_ASSIGNED_CONTEXT ( ( #297 ) ) GLOBAL_UNIT_ASSIGNED_CONTEXT ( ( #393, #312, #306 ) ) REPRESENTATION_CONTEXT ( 'NONE', 'WORKASPACE' ) );
#321 = CARTESIAN_POINT ( 'NONE',  ( 0.0000000000000000000, 0.3100000000000000000, 0.0000000000000000000 ) ) ;
#322 = DIRECTION ( 'NONE',  ( -0.0000000000000000000, -1.000000000000000000, -0.0000000000000000000 ) ) ;
#323 = AXIS2_PLACEMENT_3D ( 'NONE', #276, #369, #389 ) ;
#324 = CARTESIAN_POINT ( 'NONE',  ( 0.0000000000000000000, 0.3100000000000000000, -3.249999999999997800 ) ) ;
#325 = FACE_OUTER_BOUND ( 'NONE', #209, .T. ) ;
#326 = MECHANICAL_DESIGN_GEOMETRIC_PRESENTATION_REPRESENTATION (  '', ( #52 ), #76 ) ;
#327 = FACE_OUTER_BOUND ( 'NONE', #257, .T. ) ;
#328 = AXIS2_PLACEMENT_3D ( 'NONE', #95, #45, #277 ) ;
#329 = DIRECTION ( 'NONE',  ( -1.000000000000000000, 0.0000000000000000000, 6.123233995736771000E-017 ) ) ;
#330 = VECTOR ( 'NONE', #352, 1000.000000000000000 ) ;
#331 = FILL_AREA_STYLE ('',( #376 ) ) ;
#332 = ORIENTED_EDGE ( 'NONE', *, *, #40, .T. ) ;
#333 = EDGE_CURVE ( 'NONE', #310, #30, #366, .T. ) ;
#334 = VECTOR ( 'NONE', #33, 1000.000000000000000 ) ;
#335 = ORIENTED_EDGE ( 'NONE', *, *, #4, .F. ) ;
#336 = EDGE_CURVE ( 'NONE', #101, #61, #131, .T. ) ;
#337 = SURFACE_SIDE_STYLE ('',( #235 ) ) ;
#338 = CARTESIAN_POINT ( 'NONE',  ( 0.0000000000000000000, 0.3100000000000000000, -3.249999999999997800 ) ) ;
#339 = DIRECTION ( 'NONE',  ( 0.0000000000000000000, 0.0000000000000000000, -1.000000000000000000 ) ) ;
#340 = CARTESIAN_POINT ( 'NONE',  ( 8.550000000000002500, 0.3100000000000000000, 0.0000000000000000000 ) ) ;
#341 = DIRECTION ( 'NONE',  ( 1.000000000000000000, 0.0000000000000000000, 0.0000000000000000000 ) ) ;
#342 = ORIENTED_EDGE ( 'NONE', *, *, #404, .T. ) ;
#343 = CARTESIAN_POINT ( 'NONE',  ( 0.0000000000000000000, 0.3100000000000000000, 0.0000000000000000000 ) ) ;
#344 = DIRECTION ( 'NONE',  ( 0.0000000000000000000, 0.0000000000000000000, 1.000000000000000000 ) ) ;
#345 = DIRECTION ( 'NONE',  ( -0.0000000000000000000, -1.000000000000000000, -0.0000000000000000000 ) ) ;
#346 = AXIS2_PLACEMENT_3D ( 'NONE', #428, #231, #114 ) ;
#347 = CARTESIAN_POINT ( 'NONE',  ( 5.149999999999998600, 0.3100000000000000000, -3.249999999999999100 ) ) ;
#348 = DIRECTION ( 'NONE',  ( -1.000000000000000000, 0.0000000000000000000, 2.526296324238069700E-016 ) ) ;
#349 = COLOUR_RGB ( '',0.0000000000000000000, 1.000000000000000000, 0.0000000000000000000 ) ;
#350 = VECTOR ( 'NONE', #91, 1000.000000000000000 ) ;
#351 = SURFACE_SIDE_STYLE ('',( #84 ) ) ;
#352 = DIRECTION ( 'NONE',  ( 1.000000000000000000, 0.0000000000000000000, -6.123233995736771000E-017 ) ) ;
#353 = PRESENTATION_LAYER_ASSIGNMENT (  '', '', ( #52 ) ) ;
#354 = UNCERTAINTY_MEASURE_WITH_UNIT (LENGTH_MEASURE( 1.000000000000000100E-005 ), #439, 'distance_accuracy_value', 'NONE');
#355 = LINE ( 'NONE', #429, #350 ) ;
#356 = DIRECTION ( 'NONE',  ( 0.0000000000000000000, 0.0000000000000000000, -1.000000000000000000 ) ) ;
#357 = FILL_AREA_STYLE ('',( #185 ) ) ;
#358 = PRESENTATION_LAYER_ASSIGNMENT (  '', '', ( #81 ) ) ;
#359 = ORIENTED_EDGE ( 'NONE', *, *, #49, .F. ) ;
#360 =( LENGTH_UNIT ( ) NAMED_UNIT ( * ) SI_UNIT ( .MILLI., .METRE. ) );
#361 = SURFACE_SIDE_STYLE ('',( #142 ) ) ;
#362 = CLOSED_SHELL ( 'NONE', ( #379, #208, #191, #205, #261, #64 ) ) ;
#363 = CARTESIAN_POINT ( 'NONE',  ( 5.150000000000000400, 1.000000000000000000, -3.153465507804436300E-016 ) ) ;
#364 = AXIS2_PLACEMENT_3D ( 'NONE', #435, #75, #41 ) ;
#365 = FILL_AREA_STYLE ('',( #427 ) ) ;
#366 = LINE ( 'NONE', #363, #140 ) ;
#367 = EDGE_CURVE ( 'NONE', #48, #310, #355, .T. ) ;
#368 = PLANE ( 'NONE',  #263 ) ;
#369 = DIRECTION ( 'NONE',  ( 0.0000000000000000000, 0.0000000000000000000, -1.000000000000000000 ) ) ;
#370 = PLANE ( 'NONE',  #328 ) ;
#371 =( GEOMETRIC_REPRESENTATION_CONTEXT ( 3 ) GLOBAL_UNCERTAINTY_ASSIGNED_CONTEXT ( ( #87 ) ) GLOBAL_UNIT_ASSIGNED_CONTEXT ( ( #156, #288, #269 ) ) REPRESENTATION_CONTEXT ( 'NONE', 'WORKASPACE' ) );
#372 = CARTESIAN_POINT ( 'NONE',  ( 0.0000000000000000000, 0.3100000000000000000, -3.249999999999997800 ) ) ;
#373 = SURFACE_STYLE_FILL_AREA ( #34 ) ;
#374 = ORIENTED_EDGE ( 'NONE', *, *, #78, .F. ) ;
#375 = SURFACE_STYLE_FILL_AREA ( #244 ) ;
#376 = FILL_AREA_STYLE_COLOUR ( '', #394 ) ;
#377 = DIRECTION ( 'NONE',  ( 1.014458173085852000E-016, -0.0000000000000000000, 1.000000000000000000 ) ) ;
#378 = EDGE_CURVE ( 'NONE', #224, #303, #6, .T. ) ;
#379 = ADVANCED_FACE ( 'NONE', ( #237 ), #254, .F. ) ;
#380 = EDGE_CURVE ( 'NONE', #310, #36, #274, .T. ) ;
#381 = AXIS2_PLACEMENT_3D ( 'NONE', #124, #413, #256 ) ;
#382 = ORIENTED_EDGE ( 'NONE', *, *, #308, .F. ) ;
#383 =( NAMED_UNIT ( * ) SI_UNIT ( $, .STERADIAN. ) SOLID_ANGLE_UNIT ( ) );
#384 = FILL_AREA_STYLE ('',( #448 ) ) ;
#385 = AXIS2_PLACEMENT_3D ( 'NONE', #5, #258, #182 ) ;
#386 =( LENGTH_UNIT ( ) NAMED_UNIT ( * ) SI_UNIT ( .MILLI., .METRE. ) );
#387 = LINE ( 'NONE', #68, #77 ) ;
#388 =( LENGTH_UNIT ( ) NAMED_UNIT ( * ) SI_UNIT ( .MILLI., .METRE. ) );
#389 = DIRECTION ( 'NONE',  ( -1.000000000000000000, 0.0000000000000000000, -0.0000000000000000000 ) ) ;
#390 = ORIENTED_EDGE ( 'NONE', *, *, #204, .T. ) ;
#391 = PRESENTATION_STYLE_ASSIGNMENT (( #229 ) ) ;
#392 = ADVANCED_FACE ( 'NONE', ( #56 ), #29, .F. ) ;
#393 =( LENGTH_UNIT ( ) NAMED_UNIT ( * ) SI_UNIT ( .MILLI., .METRE. ) );
#394 = COLOUR_RGB ( '',0.7921568627450980000, 0.8196078431372548800, 0.9333333333333333500 ) ;
#395 = ORIENTED_EDGE ( 'NONE', *, *, #40, .F. ) ;
#396 = CLOSED_SHELL ( 'NONE', ( #240, #160, #7, #392, #59, #183 ) ) ;
#397 = PRESENTATION_LAYER_ASSIGNMENT (  '', '', ( #210 ) ) ;
#398 = DIRECTION ( 'NONE',  ( -5.337610695313255300E-016, 0.0000000000000000000, -1.000000000000000000 ) ) ;
#399 = SURFACE_STYLE_USAGE ( .BOTH. , #265 ) ;
#400 = FILL_AREA_STYLE_COLOUR ( '', #445 ) ;
#401 = CARTESIAN_POINT ( 'NONE',  ( 0.0000000000000000000, 1.000000000000000000, -3.249999999999997800 ) ) ;
#402 = LINE ( 'NONE', #416, #234 ) ;
#403 =( GEOMETRIC_REPRESENTATION_CONTEXT ( 3 ) GLOBAL_UNCERTAINTY_ASSIGNED_CONTEXT ( ( #252 ) ) GLOBAL_UNIT_ASSIGNED_CONTEXT ( ( #386, #245, #146 ) ) REPRESENTATION_CONTEXT ( 'NONE', 'WORKASPACE' ) );
#404 = EDGE_CURVE ( 'NONE', #319, #226, #225, .T. ) ;
#405 = ORIENTED_EDGE ( 'NONE', *, *, #378, .F. ) ;
#406 =( NAMED_UNIT ( * ) PLANE_ANGLE_UNIT ( ) SI_UNIT ( $, .RADIAN. ) );
#407 = CARTESIAN_POINT ( 'NONE',  ( 0.0000000000000000000, 1.000000000000000000, 0.0000000000000000000 ) ) ;
#408 = CARTESIAN_POINT ( 'NONE',  ( 5.150000000000000400, 0.3100000000000000000, -3.153465507804436300E-016 ) ) ;
#409 = DIRECTION ( 'NONE',  ( -1.000000000000000000, 0.0000000000000000000, 1.014458173085851800E-016 ) ) ;
#410 = PRODUCT_DEFINITION_SHAPE ( 'NONE', 'NONE',  #137 ) ;
#411 = SURFACE_STYLE_FILL_AREA ( #357 ) ;
#412 = ORIENTED_EDGE ( 'NONE', *, *, #295, .T. ) ;
#413 = DIRECTION ( 'NONE',  ( 0.0000000000000000000, 1.000000000000000000, 0.0000000000000000000 ) ) ;
#414 = LINE ( 'NONE', #163, #281 ) ;
#415 = CARTESIAN_POINT ( 'NONE',  ( 8.550000000000002500, 0.3100000000000000000, -3.249999999999998700 ) ) ;
#416 = CARTESIAN_POINT ( 'NONE',  ( 0.0000000000000000000, 1.000000000000000000, -3.249999999999997800 ) ) ;
#417 = ORIENTED_EDGE ( 'NONE', *, *, #380, .F. ) ;
#418 = DIRECTION ( 'NONE',  ( 1.000000000000000000, 0.0000000000000000000, 0.0000000000000000000 ) ) ;
#419 = LINE ( 'NONE', #264, #162 ) ;
#420 = SURFACE_STYLE_USAGE ( .BOTH. , #423 ) ;
#421 = DIRECTION ( 'NONE',  ( -0.0000000000000000000, -1.000000000000000000, -0.0000000000000000000 ) ) ;
#422 = FACE_OUTER_BOUND ( 'NONE', #291, .T. ) ;
#423 = SURFACE_SIDE_STYLE ('',( #375 ) ) ;
#424 = LINE ( 'NONE', #408, #80 ) ;
#425 = COLOUR_RGB ( '',0.7921568627450980000, 0.8196078431372548800, 0.9333333333333333500 ) ;
#426 = AXIS2_PLACEMENT_3D ( 'NONE', #249, #35, #449 ) ;
#427 = FILL_AREA_STYLE_COLOUR ( '', #22 ) ;
#428 = CARTESIAN_POINT ( 'NONE',  ( 0.0000000000000000000, 0.0000000000000000000, 0.0000000000000000000 ) ) ;
#429 = CARTESIAN_POINT ( 'NONE',  ( 0.0000000000000000000, 1.000000000000000000, 0.0000000000000000000 ) ) ;
#430 = ORIENTED_EDGE ( 'NONE', *, *, #333, .F. ) ;
#431 = VERTEX_POINT ( 'NONE', #88 ) ;
#432 = PRESENTATION_STYLE_ASSIGNMENT (( #154 ) ) ;
#433 = DIRECTION ( 'NONE',  ( 0.0000000000000000000, 0.0000000000000000000, 1.000000000000000000 ) ) ;
#434 = ADVANCED_BREP_SHAPE_REPRESENTATION ( '2_BLEí¥è¨å^BLE_MODULE', ( #144, #135, #129 ), #197 ) ;
#435 = CARTESIAN_POINT ( 'NONE',  ( 0.0000000000000000000, 1.000000000000000000, 0.0000000000000000000 ) ) ;
#436 = PLANE ( 'NONE',  #381 ) ;
#437 = DIRECTION ( 'NONE',  ( -1.000000000000000000, 0.0000000000000000000, 1.014458173085851800E-016 ) ) ;
#438 = DIRECTION ( 'NONE',  ( 1.000000000000000000, 0.0000000000000000000, 0.0000000000000000000 ) ) ;
#439 =( LENGTH_UNIT ( ) NAMED_UNIT ( * ) SI_UNIT ( .MILLI., .METRE. ) );
#440 =( NAMED_UNIT ( * ) PLANE_ANGLE_UNIT ( ) SI_UNIT ( $, .RADIAN. ) );
#441 = CARTESIAN_POINT ( 'NONE',  ( 0.0000000000000000000, 0.0000000000000000000, 0.0000000000000000000 ) ) ;
#442 = VERTEX_POINT ( 'NONE', #161 ) ;
#443 = VERTEX_POINT ( 'NONE', #321 ) ;
#444 = DIRECTION ( 'NONE',  ( 1.000000000000000000, 0.0000000000000000000, -1.014458173085852000E-016 ) ) ;
#445 = COLOUR_RGB ( '',0.0000000000000000000, 1.000000000000000000, 0.0000000000000000000 ) ;
#446 = CARTESIAN_POINT ( 'NONE',  ( 5.149999999999998600, 1.000000000000000000, -3.249999999999999100 ) ) ;
#447 = PLANE ( 'NONE',  #323 ) ;
#448 = FILL_AREA_STYLE_COLOUR ( '', #349 ) ;
#449 = DIRECTION ( 'NONE',  ( 1.000000000000000000, 0.0000000000000000000, -2.526296324238069700E-016 ) ) ;
#450 = PRESENTATION_STYLE_ASSIGNMENT (( #23 ) ) ;
#451 = SURFACE_SIDE_STYLE ('',( #373 ) ) ;
#452 = DIRECTION ( 'NONE',  ( -0.0000000000000000000, -1.000000000000000000, -0.0000000000000000000 ) ) ;
#453 = VECTOR ( 'NONE', #175, 1000.000000000000000 ) ;
#454 = ORIENTED_EDGE ( 'NONE', *, *, #367, .F. ) ;
#455 = FACE_OUTER_BOUND ( 'NONE', #67, .T. ) ;
#456 = ORIENTED_EDGE ( 'NONE', *, *, #295, .F. ) ;
#457 = ORIENTED_EDGE ( 'NONE', *, *, #151, .F. ) ;
ENDSEC;
END-ISO-10303-21;
